<svg width="141" height="130" viewBox="0 0 141 130" fill="none" xmlns="http://www.w3.org/2000/svg">
<g clip-path="url(#clip0_105_6)">
<path fill-rule="evenodd" clip-rule="evenodd" d="M36.7857 83.1253C37.2868 83.1959 37.7123 83.5283 37.9023 83.9974C41.4578 92.7787 47.9804 100.035 56.3344 104.503C64.6884 108.971 74.3449 110.368 83.6227 108.451L83.9098 109.84L85.2572 110.283C83.9518 114.257 81.7922 117.898 78.9299 120.949C76.0676 124 72.5721 126.387 68.6888 127.944C64.8055 129.5 60.6287 130.187 56.4515 129.957C52.2743 129.727 48.1981 128.586 44.5091 126.613C40.8201 124.64 37.6078 121.883 35.0976 118.536C32.5875 115.189 30.8405 111.334 29.9792 107.24C29.1179 103.146 29.1633 98.9131 30.1121 94.8386C31.061 90.7641 32.8903 86.9468 35.4715 83.6545C35.7838 83.2563 36.2846 83.0546 36.7857 83.1253ZM81.6954 111.67C72.5482 113.007 63.1874 111.385 54.9966 107.005C46.8058 102.624 40.2603 95.738 36.2949 87.3873C34.704 89.8653 33.5454 92.6024 32.8748 95.482C32.0199 99.1532 31.979 102.967 32.755 106.656C33.531 110.345 35.1052 113.819 37.3669 116.834C39.6286 119.85 42.523 122.334 45.8469 124.111C49.1708 125.889 52.8436 126.918 56.6074 127.125C60.3712 127.332 64.1347 126.713 67.6336 125.311C71.1326 123.908 74.2821 121.757 76.8611 119.008C78.884 116.852 80.5174 114.369 81.6954 111.67Z" fill="white"/>
<path fill-rule="evenodd" clip-rule="evenodd" d="M86.9594 30.108C78.6122 27.6218 69.6855 27.897 61.5074 30.8928C53.3293 33.8885 46.337 39.4446 41.5709 46.7343C36.8048 54.024 34.5197 62.6577 35.0555 71.3508C35.5914 80.0438 38.9196 88.3315 44.545 94.9806C50.1703 101.63 57.7921 106.285 66.2762 108.254C74.243 110.102 82.5703 109.489 90.1624 106.516C88.3582 103.096 87.529 99.2325 87.7838 95.3525C88.0752 90.9132 89.7704 86.6814 92.6244 83.2687C95.4785 79.8559 99.3436 77.4389 103.661 76.3667C107.435 75.4296 111.384 75.5623 115.069 76.733C115.581 74.1414 115.839 71.5045 115.837 68.8601C115.837 68.7891 115.843 68.7185 115.853 68.6491C115.807 60.0135 112.998 51.6171 107.834 44.6911C102.628 37.7089 95.3065 32.5942 86.9594 30.108ZM118.674 69.0759C118.685 69.0046 118.69 68.9322 118.69 68.8592C118.689 59.5387 115.679 50.4676 110.108 42.9955C104.537 35.5235 96.7017 30.05 87.7691 27.3894C78.8364 24.7288 69.2835 25.0234 60.5317 28.2293C51.7799 31.4352 44.2971 37.381 39.1967 45.1821C34.0963 52.9831 31.6509 62.2225 32.2244 71.5253C32.7978 80.8281 36.3595 89.6971 42.3794 96.8127C48.3994 103.928 56.5558 108.91 65.6351 111.017C74.7143 113.123 84.2311 112.242 92.7694 108.505C93.1485 108.339 93.4362 108.016 93.5571 107.62C93.678 107.224 93.6199 106.795 93.3982 106.446C91.3371 103.197 90.3622 99.3774 90.6142 95.5383C90.8663 91.6993 92.3323 88.0397 94.8004 85.0884C97.2685 82.1371 100.611 80.0469 104.345 79.1196C108.079 78.1924 112.011 78.4763 115.573 79.9302C115.956 80.0866 116.389 80.0678 116.757 79.8788C117.125 79.6897 117.392 79.3493 117.488 78.9467C118.261 75.7127 118.659 72.4005 118.674 69.0759Z" fill="white"/>
<path fill-rule="evenodd" clip-rule="evenodd" d="M115.574 79.929C111.981 78.4561 108.011 78.1763 104.247 79.131C100.483 80.0858 97.1251 82.2247 94.6689 85.2324C92.2126 88.24 90.7877 91.9573 90.6041 95.8362C90.4206 99.7151 91.4882 103.55 93.6496 106.776C95.8109 110.003 98.9517 112.449 102.609 113.755C106.266 115.061 110.246 115.157 113.962 114.03C117.678 112.902 120.933 110.611 123.248 107.493C125.563 104.375 126.814 100.597 126.819 96.7136C126.821 93.116 125.753 89.5991 123.751 86.6103C121.748 83.6216 118.902 81.2961 115.575 79.9293M103.549 76.3815C107.903 75.2773 112.496 75.6009 116.651 77.3048L116.652 77.3051C120.5 78.8856 123.792 81.5751 126.107 85.0315C128.423 88.4878 129.658 92.5548 129.656 96.7152V96.716C129.651 101.207 128.203 105.578 125.525 109.184C122.848 112.79 119.083 115.44 114.785 116.744C110.487 118.048 105.884 117.937 101.655 116.426C97.4252 114.916 93.7927 112.086 91.293 108.355C88.7932 104.624 87.5585 100.188 87.7707 95.7022C87.983 91.216 89.631 86.9167 92.4719 83.4381C95.3127 79.9596 99.196 77.4858 103.549 76.3815Z" fill="white"/>
<path fill-rule="evenodd" clip-rule="evenodd" d="M10.3608 34.1574C9.40476 38.1674 11.8805 42.1932 15.8905 43.1492C19.9005 44.1053 23.9262 41.6296 24.8823 37.6196C25.8383 33.6096 23.3626 29.5839 19.3526 28.6278C15.3426 27.6718 11.3169 30.1475 10.3608 34.1574ZM15.2326 45.9085C9.69876 44.5891 6.28221 39.0335 7.60158 33.4996C8.92096 27.9657 14.4766 24.5492 20.0105 25.8686C25.5444 27.188 28.9609 32.7436 27.6415 38.2775C26.3221 43.8113 20.7665 47.2278 15.2326 45.9085Z" fill="white"/>
<path fill-rule="evenodd" clip-rule="evenodd" d="M63.8374 39.8439C64.1516 40.5614 63.8247 41.3978 63.1071 41.712C58.5036 43.7278 54.5091 46.9154 51.5221 50.9569C51.0565 51.5868 50.1684 51.72 49.5385 51.2544C48.9086 50.7888 48.7754 49.9008 49.2409 49.2709C52.5228 44.8306 56.9115 41.3284 61.9693 39.1136C62.6869 38.7994 63.5232 39.1264 63.8374 39.8439Z" fill="white"/>
<path fill-rule="evenodd" clip-rule="evenodd" d="M45.8112 59.0694C46.5698 59.2644 47.0267 60.0375 46.8317 60.7962C45.0391 67.7689 45.9337 75.1607 49.3377 81.5046C49.7081 82.1948 49.4488 83.0546 48.7586 83.425C48.0684 83.7953 47.2086 83.536 46.8382 82.8458C43.0976 75.8747 42.1147 67.752 44.0844 60.0899C44.2795 59.3313 45.0526 58.8744 45.8112 59.0694Z" fill="white"/>
<path fill-rule="evenodd" clip-rule="evenodd" d="M108.682 85.9401C106.89 85.9365 105.126 86.3831 103.552 87.2389C102.863 87.613 102.002 87.3583 101.628 86.6701C101.254 85.9819 101.509 85.1208 102.197 84.7467C104.189 83.664 106.421 83.0989 108.688 83.1035C109.471 83.1051 110.105 83.7414 110.104 84.5247C110.102 85.308 109.466 85.9417 108.682 85.9401Z" fill="white"/>
<path fill-rule="evenodd" clip-rule="evenodd" d="M99.6155 88.445C100.251 88.9034 100.394 89.7899 99.9357 90.4251C98.823 91.967 98.1413 93.7776 97.9606 95.6705C97.8862 96.4503 97.1937 97.022 96.414 96.9476C95.6342 96.8732 95.0625 96.1807 95.1369 95.401C95.3654 93.0064 96.2279 90.7159 97.6355 88.7652C98.0938 88.13 98.9803 87.9867 99.6155 88.445Z" fill="white"/>
<path fill-rule="evenodd" clip-rule="evenodd" d="M17.112 33.5241C16.7877 33.5221 16.4685 33.6043 16.1856 33.7628C15.9027 33.9212 15.6658 34.1504 15.4981 34.4279C15.0929 35.0983 14.221 35.3133 13.5506 34.9082C12.8803 34.503 12.6652 33.6311 13.0704 32.9608C13.4922 32.2628 14.0881 31.6863 14.7996 31.2878C15.5112 30.8894 16.3141 30.6825 17.1296 30.6876C17.9129 30.6925 18.5439 31.3314 18.539 32.1147C18.5342 32.8979 17.8953 33.529 17.112 33.5241Z" fill="white"/>
<path fill-rule="evenodd" clip-rule="evenodd" d="M8.74079 75.7891C9.52409 75.7891 10.1591 76.4241 10.1591 77.2073V80.6396C10.1591 81.4229 9.52409 82.0579 8.74079 82.0579C7.9575 82.0579 7.32251 81.4229 7.32251 80.6396V77.2073C7.32251 76.4241 7.9575 75.7891 8.74079 75.7891Z" fill="white"/>
<path fill-rule="evenodd" clip-rule="evenodd" d="M8.74079 87.002C9.52409 87.002 10.1591 87.6369 10.1591 88.4202V91.8525C10.1591 92.6358 9.52409 93.2708 8.74079 93.2708C7.9575 93.2708 7.32251 92.6358 7.32251 91.8525V88.4202C7.32251 87.6369 7.9575 87.002 8.74079 87.002Z" fill="white"/>
<path fill-rule="evenodd" clip-rule="evenodd" d="M11.2126 84.5296C11.2126 83.7463 11.8476 83.1113 12.6309 83.1113H16.0632C16.8465 83.1113 17.4815 83.7463 17.4815 84.5296C17.4815 85.3129 16.8465 85.9479 16.0632 85.9479H12.6309C11.8476 85.9479 11.2126 85.3129 11.2126 84.5296Z" fill="white"/>
<path fill-rule="evenodd" clip-rule="evenodd" d="M0 84.5296C0 83.7463 0.634988 83.1113 1.41828 83.1113H4.85053C5.63383 83.1113 6.26882 83.7463 6.26882 84.5296C6.26882 85.3129 5.63383 85.9479 4.85053 85.9479H1.41828C0.634988 85.9479 0 85.3129 0 84.5296Z" fill="white"/>
<path fill-rule="evenodd" clip-rule="evenodd" d="M89.1331 0C89.9164 0 90.5514 0.634988 90.5514 1.41828V4.85053C90.5514 5.63383 89.9164 6.26882 89.1331 6.26882C88.3498 6.26882 87.7148 5.63383 87.7148 4.85053V1.41828C87.7148 0.634988 88.3498 0 89.1331 0Z" fill="white"/>
<path fill-rule="evenodd" clip-rule="evenodd" d="M89.1331 11.2129C89.9164 11.2129 90.5514 11.8479 90.5514 12.6312V16.0634C90.5514 16.8467 89.9164 17.4817 89.1331 17.4817C88.3498 17.4817 87.7148 16.8467 87.7148 16.0634V12.6312C87.7148 11.8479 88.3498 11.2129 89.1331 11.2129Z" fill="white"/>
<path fill-rule="evenodd" clip-rule="evenodd" d="M91.605 8.74055C91.605 7.95725 92.24 7.32227 93.0233 7.32227H96.4555C97.2388 7.32227 97.8738 7.95725 97.8738 8.74055C97.8738 9.52385 97.2388 10.1588 96.4555 10.1588H93.0233C92.24 10.1588 91.605 9.52385 91.605 8.74055Z" fill="white"/>
<path fill-rule="evenodd" clip-rule="evenodd" d="M80.3923 8.74055C80.3923 7.95725 81.0273 7.32227 81.8106 7.32227H85.2429C86.0262 7.32227 86.6612 7.95725 86.6612 8.74055C86.6612 9.52385 86.0262 10.1588 85.2429 10.1588H81.8106C81.0273 10.1588 80.3923 9.52385 80.3923 8.74055Z" fill="white"/>
<path fill-rule="evenodd" clip-rule="evenodd" d="M131.625 58.9238C132.408 58.9238 133.043 59.5588 133.043 60.3421V63.7744C133.043 64.5577 132.408 65.1926 131.625 65.1926C130.842 65.1926 130.207 64.5577 130.207 63.7744V60.3421C130.207 59.5588 130.842 58.9238 131.625 58.9238Z" fill="white"/>
<path fill-rule="evenodd" clip-rule="evenodd" d="M131.625 70.1357C132.408 70.1357 133.043 70.7707 133.043 71.554V74.9863C133.043 75.7696 132.408 76.4046 131.625 76.4046C130.842 76.4046 130.207 75.7696 130.207 74.9863V71.554C130.207 70.7707 130.842 70.1357 131.625 70.1357Z" fill="white"/>
<path fill-rule="evenodd" clip-rule="evenodd" d="M134.097 67.6644C134.097 66.8811 134.732 66.2461 135.515 66.2461H138.947C139.731 66.2461 140.366 66.8811 140.366 67.6644C140.366 68.4477 139.731 69.0827 138.947 69.0827H135.515C134.732 69.0827 134.097 68.4477 134.097 67.6644Z" fill="white"/>
<path fill-rule="evenodd" clip-rule="evenodd" d="M122.884 67.6644C122.884 66.8811 123.519 66.2461 124.303 66.2461H127.735C128.518 66.2461 129.153 66.8811 129.153 67.6644C129.153 68.4477 128.518 69.0827 127.735 69.0827H124.303C123.519 69.0827 122.884 68.4477 122.884 67.6644Z" fill="white"/>
<path d="M84.6856 76.3159C84.6856 75.3976 84.5415 74.5873 84.2534 73.8851C83.9833 73.1649 83.4972 72.5167 82.795 71.9405C82.1108 71.3644 81.1565 70.8152 79.9321 70.293C78.7257 69.7709 77.1952 69.2397 75.3407 68.6995C73.3961 68.1233 71.6405 67.4842 70.074 66.7819C68.5076 66.0617 67.1661 65.2425 66.0498 64.3242C64.9334 63.4059 64.0782 62.3526 63.484 61.1642C62.8898 59.9758 62.5927 58.6164 62.5927 57.0859C62.5927 55.5555 62.9078 54.142 63.538 52.8456C64.1682 51.5492 65.0685 50.4239 66.2389 49.4696C67.4272 48.4973 68.8407 47.741 70.4792 47.2009C72.1177 46.6607 73.9452 46.3906 75.9619 46.3906C78.9148 46.3906 81.4175 46.9578 83.4702 48.0922C85.5408 49.2085 87.1163 50.676 88.1966 52.4945C89.277 54.2951 89.8171 56.2217 89.8171 58.2743H84.6315C84.6315 56.7978 84.3164 55.4924 83.6863 54.3581C83.0561 53.2057 82.1018 52.3055 80.8234 51.6573C79.545 50.991 77.9245 50.6579 75.9619 50.6579C74.1073 50.6579 72.5768 50.937 71.3704 51.4952C70.1641 52.0534 69.2638 52.8096 68.6696 53.7639C68.0934 54.7182 67.8053 55.8075 67.8053 57.0319C67.8053 57.8602 67.9764 58.6164 68.3185 59.3006C68.6786 59.9668 69.2278 60.588 69.966 61.1642C70.7222 61.7404 71.6765 62.2715 72.8289 62.7577C73.9993 63.2438 75.3947 63.712 77.0152 64.1621C79.2479 64.7923 81.1745 65.4945 82.795 66.2688C84.4155 67.043 85.7479 67.9163 86.7922 68.8886C87.8545 69.8429 88.6378 70.9322 89.1419 72.1566C89.6641 73.363 89.9252 74.7314 89.9252 76.2619C89.9252 77.8644 89.6011 79.3138 88.9529 80.6102C88.3047 81.9066 87.3774 83.014 86.171 83.9322C84.9646 84.8505 83.5152 85.5617 81.8227 86.0659C80.1482 86.552 78.2756 86.7951 76.2049 86.7951C74.3864 86.7951 72.5948 86.543 70.8303 86.0389C69.0837 85.5347 67.4902 84.7785 66.0498 83.7702C64.6274 82.7619 63.484 81.5195 62.6197 80.043C61.7735 78.5486 61.3503 76.82 61.3503 74.8574H66.5359C66.5359 76.2078 66.797 77.3692 67.3192 78.3415C67.8413 79.2958 68.5526 80.088 69.4528 80.7182C70.3711 81.3484 71.4065 81.8166 72.5588 82.1227C73.7292 82.4108 74.9445 82.5548 76.2049 82.5548C78.0235 82.5548 79.563 82.3027 80.8234 81.7986C82.0838 81.2944 83.0381 80.5742 83.6863 79.6379C84.3525 78.7016 84.6856 77.5943 84.6856 76.3159Z" fill="white"/>
</g>
<defs>
<clipPath id="clip0_105_6">
<rect width="140.366" height="130" fill="white"/>
</clipPath>
</defs>
</svg>
